<?xml version="1.0" encoding="UTF-8"?>
<svg id="Capa_1" xmlns="http://www.w3.org/2000/svg" version="1.1" viewBox="0 0 338.4 165.8">
  <!-- Generator: Adobe Illustrator 30.0.0, SVG Export Plug-In . SVG Version: 2.1.1 Build 123)  -->
  <defs>
    <style>
      .st0 {
        fill: #044cad;
      }

      .st1 {
        fill: #00ad0a;
      }

      .st2 {
        fill: #1eae1e;
      }

      .st3 {
        fill: #d5b71a;
      }

      .st4 {
        fill: #a51212;
      }
    </style>
  </defs>
  <g>
    <path class="st1" d="M324.1,86.3c-55.7,2.1-113.4-2.8-168.8,0-44.9,2.2-86.8,26.3-112.5,62.7-2.5,3.5-7.5,13.5-9.8,15.6s-6.8.5-5.9-3.6,11.4-16.6,10.8-17.8c-11.1-5.1-23.5-6.3-35.7-7.1-2.9-.8-3.2-5.7.5-6.4,12-2.3,28.8,3.9,40.3,7.4l13.2-14.9c-17.2-7.6-35.2-11.9-54.1-12.1-2.5-.8-2.5-4.3-.9-5.9,2.5-2.4,24.3.9,28.9,1.9,5.4,1.1,11.6,3,16.8,4.9s12.9,5.9,14.3,6,6.7-4.8,8.6-6.3,4.6-3,6.7-4.6c-22.2-13.6-48.4-19.8-74.3-20-2.9-1-2-6.6-.1-6.6h15.3c-.4-2.9.6-7.3-.2-10s-4.2-4.2-5.4-5.8C0,48.1,1.1,25.5,17.2,13.3c4.1-3.1,5.1-1.9,8.6,1.1,13.6,11.5,16.1,31.9,6.2,46.7-1.5,2.2-7.1,7.7-7.3,9.1s-.4,10.5,0,10.8,5,.3,6,.8v-13.1c0-1.8,16.9-17,19-19.9l2.2-.7,38.8.2c2.1,2.7,20,18.3,20,19.7v19.8c6-1.1,12-3.3,18-4.9,1.8-8.6-3.4-9.9-7.8-15.3-16.3-19.9-13.1-51.4,8.2-66.5,4.8-3.4,9.3,2.8,12.4,6.3,14.5,16.8,16.5,39.2,3.6,57.5s-8.6,8.9-9.2,10.3c-.9,2-.2,4.6-.4,6.7l15.3-2.3,180,.4c1.8.9,2.5,4.7,0,5.6-1.4-1.4-8.3-3.1-6.7.7ZM135.5,65.3c16.6-16.5,13.9-42.7-3.4-57.6-17.4,14.6-20,41.3-3.4,57.6v-25.1c0-3.2,6.7-3.2,6.7,0v25.1ZM24.7,58.6c8.2-8.5,8.2-21.3,2.7-31.5s-5.1-7.6-6.7-7.4-6.4,7.8-7.1,9.4c-4.3,9.3-3.7,21.9,3.6,29.5v-20.6c0-3.8,7.5-2.6,7.5,0v20.6ZM98.8,66.1c-1.4-1.4-10.1-11.2-10.9-11.2h-26.6c-.3,1.3.5,1.5,1.1,2.3.8,1.1,8.4,9,9,9h27.3ZM61.4,66.1c-1.2-1.5-8-9.1-9.3-8.9l-8.7,8.9h18ZM66.6,73.6h-29.2c.5,2.5-.6,7.1,0,9.3s2.8,1.1,3.5,1.2c1.5.2.9,0,1.1-1.1.3-1.9-.7-4.7,2-5.5s14.4-.5,16.3-.1,2.6,1.3,2.6,1.9v12.4c0,.2,3.1.7,3.7,1.5v-19.5ZM104.1,73.6h-29.9v22.8c0,.5,8.4,5,9.3,4.9,1.4-.1,7.7-4.4,9.6-5.4,3.3-1.6,7.4-3.5,11-4.4v-18ZM56.2,84.1c-11.6-.9-8.8,2.7,0,4.5v-4.5Z"/>
    <path class="st1" d="M293.2,104.5c1.9,3.9,10.7,31.7,9.6,33.5s-6,1.8-8,1.2c-3.6-1.2-2.9-6.5-4.4-7.6s-9.4-.6-9.8,0c-.9,1.4-1,6.5-1.9,7.1-2.1,1.5-9,.9-9.9-2.1-1.5-4.8,8-26,9.7-31.9,2.1-3.2,12.4-2.5,14.7-.3ZM286.7,113.2c-1.2-1.4-1.3.4-1.6,1.1-1.2,2.6-1.5,6.1-2.9,8.7h6.7c-.8-1.4-1.9-9.3-2.2-9.7Z"/>
    <path class="st1" d="M253.8,102.8c.9.6,1.9,9-1.9,9h-13.1v4.5h13.5c.7,0,1.9,9-2.6,9h-10.9v5.2h14.6c1,0,4,6.7-1.2,8.5-3.3,1.1-19.7,1-22.1-1.2s-1.6-3.5-1.7-4.7c-.6-5.4-.6-18.6,0-24s1.7-6.4,4.9-6.4,19.7-.6,20.6,0Z"/>
    <path class="st1" d="M110.1,111.8v4.5h12.4c2.3,0,3,9-1.5,9h-10.9v5.2h14.6c1.2,0,2.2,6.7-.1,8.1-2.2,1.4-15.9,1.1-19.1.7-3.1-.5-5.2-1.3-5.8-4.7s-.6-21.2,0-26.2,2.6-5.2,6.4-5.6c2.8-.3,15.7-.5,17.8.2,3.9,1.1,2,8.8-1.3,8.8h-12.4Z"/>
    <path class="st1" d="M195.2,102.2c5.4-.9,17.5-.4,15.8,7.5-1.1,4.9-4.1,1.7-7,1.4s-12.6.6-6.8,3.8c5.3,3,13.7,2.6,15.7,10.5,3.6,13.7-16.3,17.9-25.2,12.5-4-2.4-3.6-8.8,0-9.5s7,4.2,12.3,2.5c8.4-2.7-6.3-6.9-8-7.8-11.5-5.7-8.6-19,3.3-20.9Z"/>
    <path class="st1" d="M152.7,128.2v10.5c0,.6-10.5,1.4-10.5-1.9v-32.6c8.1-3.5,23.6-4,27.8,5.5s-6.3,19.9-17.4,18.5ZM159.3,111.9c-1.3-1.3-4.8-.9-6.6-.9v8.2c5,1.9,10.4-3.5,6.6-7.3Z"/>
    <path class="st2" d="M330.9,85.6c.2.2,2.1,4,2.1,4.3,1.4,6.6-13.3,10.1-15.3,15.9s1.1,3.8,3.8,6c3.9,3.4,5.6,6.5,8.6,10.1,1.4,1.6,7,6.4,7.4,7.7,1.1,4-3.7,3.5-4.3,5.2s.2,6.4-1.3,8.9c1.5,3.3,7.1,4.1,6.5,8.2s-5.8,1.7-9.2,2.9-4.3,4.3-7,2.1c-2.8-2.3,1-7.5,0-9.8-2.2-5.4-7.9-.1-9.1-4.5s1.2-3.3,1.1-4.9-3.5-7.9-3.7-12.7c-.4-7.9,2.1-9.3,3.6-15.2s-.2-3.8.7-6c2-4.9,14.6-10,15.1-12.6s-4.2-5.5-5.9-4.8c-1.5-3.9,5.3-2.1,6.7-.7ZM332.4,130.5c-5.9-5.4-8.4-12.9-15.3-17.2-4.4,7.5-1.7,15.6.9,23s0,2.6.3,3,1.7.3,2.5.8c4.6,3.5,7.6,5.1,4.9,11.2l6.7-1.5c-.7-2-4.3-3.5-4.5-5.6-.3-3.1,2.5-8.9,1.6-12.6.4-1.2,1.8-1.2,2.9-1.2Z"/>
    <circle class="st1" cx="132.1" cy="29.1" r="3.5"/>
  </g>
  <g>
    <path class="st3" d="M164.3,74.3c-2.1,0-3.7-.5-4.8-1.6-1.1-1.1-1.7-2.7-1.7-4.8v-8.2h3.7v8.2c0,1.1.2,1.8.7,2.4.5.5,1.1.8,2,.8s1.5-.3,2-.8.7-1.3.7-2.4v-8.2h3.7v8.2c0,2.1-.5,3.7-1.6,4.8s-2.7,1.6-4.7,1.6Z"/>
    <path class="st4" d="M173.2,74.1v-14.3h2.7l7.2,8.9h-.6v-8.9h3.5v14.3h-2.7l-7.2-8.9h.6v8.9h-3.5Z"/>
    <path class="st4" d="M188.6,74.1v-14.3h3.7v14.3h-3.7Z"/>
    <path class="st0" d="M194.9,74.1v-14.3h3.1l4.9,8.9h-.7l4.9-8.9h3v14.3h-3.4v-8.5h.4l-3.7,6.4h-2l-3.7-6.4h.5v8.5h-3.4Z"/>
    <path class="st4" d="M211.2,74.1l6.7-14.3h3l6.7,14.3h-3.7l-1.7-3.9,1.4,1.1h-8.4l1.4-1.1-1.7,3.9h-3.7ZM219.3,63.6l-2.4,5.6-.6-1h5.9l-.6,1-2.4-5.6h0Z"/>
    <path class="st4" d="M235.3,74.3c-1.6,0-3-.3-4.2-.9-1.1-.6-2-1.5-2.6-2.6-.6-1.1-.9-2.4-.9-3.8s.3-2.8.9-4,1.5-2,2.7-2.6c1.2-.6,2.6-.9,4.3-.9s1.3,0,2,.2c.6.1,1.2.3,1.8.5s1,.5,1.4.8l-1.1,2.9c-.6-.4-1.3-.7-1.9-.9-.6-.2-1.3-.3-2-.3-1.4,0-2.4.4-3.1,1.1s-1,1.8-1,3.2.3,2.4,1,3.1c.7.7,1.7,1.1,3,1.1s.8,0,1.3-.1c.5,0,1-.2,1.5-.4l-.7,1.4v-3.5h-2.9v-2.6h5.9v7.2c-.5.2-1.1.5-1.6.6-.6.2-1.2.3-1.8.4-.6,0-1.3.1-1.9.1Z"/>
    <path class="st4" d="M243.2,74.1v-14.3h5.9c1.7,0,3.1.3,4.2.9,1.2.6,2.1,1.4,2.7,2.4.6,1.1.9,2.3.9,3.9s-.3,2.8-.9,3.9c-.6,1.1-1.5,1.9-2.7,2.5-1.2.6-2.6.8-4.2.8h-5.9ZM246.9,71h2c1.4,0,2.5-.3,3.1-1s1-1.7,1-3.1-.3-2.4-1-3.1c-.7-.7-1.7-1-3.1-1h-2v8.3Z"/>
    <path class="st4" d="M257.1,74.1l6.7-14.3h3l6.7,14.3h-3.7l-1.7-3.9,1.4,1.1h-8.4l1.4-1.1-1.7,3.9h-3.7ZM265.2,63.6l-2.4,5.6-.6-1h5.9l-.6,1-2.4-5.6h0Z"/>
    <path class="st4" d="M274.3,74.1v-14.3h3.7v11.2h6.4v3.1h-10.1Z"/>
    <path class="st4" d="M286.2,74.1v-14.3h10.1v2.9h-6.6v2.7h6.1v2.9h-6.1v2.9h6.6v2.9h-10.1Z"/>
    <path class="st4" d="M298.6,74.1v-14.3h2.7l7.2,8.9h-.6v-8.9h3.5v14.3h-2.7l-7.2-8.9h.6v8.9h-3.5Z"/>
    <path class="st4" d="M312.3,74.1l6.7-14.3h3l6.7,14.3h-3.7l-1.7-3.9,1.4,1.1h-8.4l1.4-1.1-1.7,3.9h-3.7ZM320.5,63.6l-2.4,5.6-.6-1h5.9l-.6,1-2.4-5.6h0Z"/>
  </g>
</svg>